<svg xmlns="http://www.w3.org/2000/svg" xmlns:xlink="http://www.w3.org/1999/xlink" width="500" zoomAndPan="magnify" viewBox="0 0 375 374.999991" height="500" preserveAspectRatio="xMidYMid meet" version="1.0"><defs><clipPath id="51f861dfa6"><path d="M 105 144 L 264 144 L 264 218 L 105 218 Z M 105 144 " clip-rule="nonzero"/></clipPath><clipPath id="873c2e33a4"><path d="M 170.964844 83.328125 L 282.332031 194.699219 L 204.375 272.65625 L 93.003906 161.289062 Z M 170.964844 83.328125 " clip-rule="nonzero"/></clipPath><clipPath id="ed281817cd"><path d="M 170.964844 83.328125 L 282.332031 194.699219 L 204.375 272.65625 L 93.003906 161.289062 Z M 170.964844 83.328125 " clip-rule="nonzero"/></clipPath><clipPath id="b1abe6fb0a"><path d="M 133 136 L 161 136 L 161 156 L 133 156 Z M 133 136 " clip-rule="nonzero"/></clipPath><clipPath id="ed5b34991c"><path d="M 170.964844 83.328125 L 282.332031 194.699219 L 204.375 272.65625 L 93.003906 161.289062 Z M 170.964844 83.328125 " clip-rule="nonzero"/></clipPath><clipPath id="a15d5fa4cb"><path d="M 170.964844 83.328125 L 282.332031 194.699219 L 204.375 272.65625 L 93.003906 161.289062 Z M 170.964844 83.328125 " clip-rule="nonzero"/></clipPath><clipPath id="2844df5d18"><path d="M 133 116 L 159 116 L 159 140 L 133 140 Z M 133 116 " clip-rule="nonzero"/></clipPath><clipPath id="e52cbc43cc"><path d="M 170.964844 83.328125 L 282.332031 194.699219 L 204.375 272.65625 L 93.003906 161.289062 Z M 170.964844 83.328125 " clip-rule="nonzero"/></clipPath><clipPath id="f794aae355"><path d="M 170.964844 83.328125 L 282.332031 194.699219 L 204.375 272.65625 L 93.003906 161.289062 Z M 170.964844 83.328125 " clip-rule="nonzero"/></clipPath><clipPath id="0b8b7f2432"><path d="M 139 149 L 163 149 L 163 164 L 139 164 Z M 139 149 " clip-rule="nonzero"/></clipPath><clipPath id="74a81e1372"><path d="M 170.964844 83.328125 L 282.332031 194.699219 L 204.375 272.65625 L 93.003906 161.289062 Z M 170.964844 83.328125 " clip-rule="nonzero"/></clipPath><clipPath id="08ba29f9ea"><path d="M 170.964844 83.328125 L 282.332031 194.699219 L 204.375 272.65625 L 93.003906 161.289062 Z M 170.964844 83.328125 " clip-rule="nonzero"/></clipPath><clipPath id="e74fd40ec0"><path d="M 164 148 L 196 148 L 196 172 L 164 172 Z M 164 148 " clip-rule="nonzero"/></clipPath><clipPath id="119083e968"><path d="M 170.964844 83.328125 L 282.332031 194.699219 L 204.375 272.65625 L 93.003906 161.289062 Z M 170.964844 83.328125 " clip-rule="nonzero"/></clipPath><clipPath id="1baea71a46"><path d="M 170.964844 83.328125 L 282.332031 194.699219 L 204.375 272.65625 L 93.003906 161.289062 Z M 170.964844 83.328125 " clip-rule="nonzero"/></clipPath><clipPath id="9d58a3b6cd"><path d="M 154 100 L 178 100 L 178 115 L 154 115 Z M 154 100 " clip-rule="nonzero"/></clipPath><clipPath id="c86ec83d48"><path d="M 170.964844 83.328125 L 282.332031 194.699219 L 204.375 272.65625 L 93.003906 161.289062 Z M 170.964844 83.328125 " clip-rule="nonzero"/></clipPath><clipPath id="8db5c4be7e"><path d="M 170.964844 83.328125 L 282.332031 194.699219 L 204.375 272.65625 L 93.003906 161.289062 Z M 170.964844 83.328125 " clip-rule="nonzero"/></clipPath><clipPath id="61e6a77637"><path d="M 199 139 L 220 139 L 220 171 L 199 171 Z M 199 139 " clip-rule="nonzero"/></clipPath><clipPath id="039cc3add7"><path d="M 170.964844 83.328125 L 282.332031 194.699219 L 204.375 272.65625 L 93.003906 161.289062 Z M 170.964844 83.328125 " clip-rule="nonzero"/></clipPath><clipPath id="e445fb92c2"><path d="M 170.964844 83.328125 L 282.332031 194.699219 L 204.375 272.65625 L 93.003906 161.289062 Z M 170.964844 83.328125 " clip-rule="nonzero"/></clipPath><clipPath id="b0c69f961a"><path d="M 166 118 L 194 118 L 194 144 L 166 144 Z M 166 118 " clip-rule="nonzero"/></clipPath><clipPath id="f2273e7314"><path d="M 170.964844 83.328125 L 282.332031 194.699219 L 204.375 272.65625 L 93.003906 161.289062 Z M 170.964844 83.328125 " clip-rule="nonzero"/></clipPath><clipPath id="147362fa47"><path d="M 170.964844 83.328125 L 282.332031 194.699219 L 204.375 272.65625 L 93.003906 161.289062 Z M 170.964844 83.328125 " clip-rule="nonzero"/></clipPath><clipPath id="0a72bbe01b"><path d="M 200 118 L 208 118 L 208 126 L 200 126 Z M 200 118 " clip-rule="nonzero"/></clipPath><clipPath id="48f5d0c8bd"><path d="M 170.964844 83.328125 L 282.332031 194.699219 L 204.375 272.65625 L 93.003906 161.289062 Z M 170.964844 83.328125 " clip-rule="nonzero"/></clipPath><clipPath id="49e9f30748"><path d="M 170.964844 83.328125 L 282.332031 194.699219 L 204.375 272.65625 L 93.003906 161.289062 Z M 170.964844 83.328125 " clip-rule="nonzero"/></clipPath><clipPath id="9e37cecd84"><path d="M 121 134 L 127 134 L 127 140 L 121 140 Z M 121 134 " clip-rule="nonzero"/></clipPath><clipPath id="71a13f6a13"><path d="M 170.964844 83.328125 L 282.332031 194.699219 L 204.375 272.65625 L 93.003906 161.289062 Z M 170.964844 83.328125 " clip-rule="nonzero"/></clipPath><clipPath id="4a7a46e8c7"><path d="M 170.964844 83.328125 L 282.332031 194.699219 L 204.375 272.65625 L 93.003906 161.289062 Z M 170.964844 83.328125 " clip-rule="nonzero"/></clipPath><clipPath id="5dd5c0b1d3"><path d="M 191 176 L 197 176 L 197 182 L 191 182 Z M 191 176 " clip-rule="nonzero"/></clipPath><clipPath id="b50fa15a80"><path d="M 170.964844 83.328125 L 282.332031 194.699219 L 204.375 272.65625 L 93.003906 161.289062 Z M 170.964844 83.328125 " clip-rule="nonzero"/></clipPath><clipPath id="015c3d46ef"><path d="M 170.964844 83.328125 L 282.332031 194.699219 L 204.375 272.65625 L 93.003906 161.289062 Z M 170.964844 83.328125 " clip-rule="nonzero"/></clipPath><clipPath id="fab9e8c402"><path d="M 145.820312 182.246094 L 163.023438 182.246094 L 163.023438 200.6875 L 145.820312 200.6875 Z M 145.820312 182.246094 " clip-rule="nonzero"/></clipPath></defs><rect x="-37.5" width="450" fill="#ffffff" y="-37.499999" height="449.999989" fill-opacity="1"/><rect x="-37.5" width="450" fill="#ffffff" y="-37.499999" height="449.999989" fill-opacity="1"/><g clip-path="url(#51f861dfa6)"><g clip-path="url(#873c2e33a4)"><g clip-path="url(#ed281817cd)"><path fill="#11221a" d="M 260.324219 215.449219 L 263.167969 207 C 263.378906 206.378906 263.332031 205.699219 263.039062 205.109375 C 262.746094 204.523438 262.230469 204.074219 261.609375 203.867188 L 221.449219 190.359375 C 221.605469 189.972656 221.746094 189.585938 221.875 189.203125 C 221.902344 189.125 221.917969 189.054688 221.941406 188.980469 C 221.972656 188.894531 222.007812 188.808594 222.035156 188.726562 C 223.320312 184.910156 220.703125 180.574219 214.035156 175.464844 C 212.949219 174.632812 211.394531 174.839844 210.5625 175.925781 C 209.734375 177.011719 209.941406 178.5625 211.023438 179.394531 C 216.628906 183.6875 217.632812 186.289062 217.34375 187.148438 C 217.335938 187.167969 217.324219 187.191406 217.316406 187.214844 C 217.308594 187.234375 217.296875 187.25 217.289062 187.265625 C 217.277344 187.289062 217.269531 187.308594 217.253906 187.332031 C 217.246094 187.347656 217.230469 187.367188 217.21875 187.382812 C 217.203125 187.40625 217.1875 187.425781 217.171875 187.449219 C 217.160156 187.464844 217.140625 187.484375 217.125 187.5 C 217.105469 187.523438 217.089844 187.546875 217.066406 187.570312 C 217.046875 187.589844 217.027344 187.605469 217.007812 187.625 C 216.984375 187.648438 216.960938 187.667969 216.933594 187.691406 C 216.914062 187.710938 216.886719 187.730469 216.863281 187.75 C 216.835938 187.769531 216.808594 187.792969 216.78125 187.816406 C 216.753906 187.835938 216.726562 187.851562 216.699219 187.871094 C 216.664062 187.894531 216.632812 187.917969 216.597656 187.941406 C 216.570312 187.960938 216.535156 187.976562 216.507812 187.996094 C 216.46875 188.019531 216.429688 188.042969 216.390625 188.066406 C 216.355469 188.085938 216.316406 188.105469 216.28125 188.125 C 216.242188 188.144531 216.199219 188.167969 216.15625 188.191406 C 216.117188 188.210938 216.074219 188.226562 216.03125 188.246094 C 215.988281 188.269531 215.941406 188.292969 215.894531 188.3125 C 215.847656 188.332031 215.800781 188.351562 215.753906 188.371094 C 215.703125 188.390625 215.65625 188.414062 215.601562 188.433594 C 215.554688 188.453125 215.5 188.46875 215.449219 188.488281 C 215.394531 188.511719 215.339844 188.53125 215.28125 188.550781 C 215.226562 188.570312 215.167969 188.585938 215.113281 188.605469 C 215.050781 188.625 214.992188 188.644531 214.929688 188.664062 C 214.867188 188.683594 214.804688 188.699219 214.742188 188.71875 C 214.675781 188.738281 214.613281 188.757812 214.546875 188.773438 C 214.480469 188.792969 214.414062 188.808594 214.347656 188.824219 C 214.273438 188.84375 214.203125 188.863281 214.128906 188.878906 C 214.058594 188.898438 213.984375 188.914062 213.914062 188.929688 C 213.835938 188.945312 213.761719 188.964844 213.683594 188.980469 C 213.605469 188.996094 213.519531 189.011719 213.441406 189.027344 C 213.359375 189.042969 213.285156 189.058594 213.203125 189.074219 C 213.117188 189.089844 213.027344 189.101562 212.941406 189.117188 C 212.855469 189.132812 212.773438 189.144531 212.6875 189.160156 C 212.59375 189.171875 212.5 189.1875 212.40625 189.199219 C 212.316406 189.210938 212.230469 189.226562 212.136719 189.238281 C 212.035156 189.25 211.929688 189.261719 211.824219 189.273438 C 211.734375 189.285156 211.644531 189.296875 211.550781 189.308594 C 211.441406 189.316406 211.328125 189.328125 211.21875 189.339844 C 211.121094 189.347656 211.027344 189.359375 210.925781 189.367188 C 210.8125 189.378906 210.691406 189.386719 210.578125 189.394531 C 210.472656 189.402344 210.371094 189.410156 210.265625 189.417969 C 210.148438 189.425781 210.027344 189.433594 209.90625 189.4375 C 209.792969 189.445312 209.679688 189.453125 209.5625 189.457031 C 209.445312 189.464844 209.320312 189.46875 209.199219 189.472656 C 209.074219 189.476562 208.953125 189.484375 208.824219 189.488281 C 208.691406 189.492188 208.550781 189.492188 208.410156 189.496094 C 208.289062 189.5 208.171875 189.5 208.046875 189.503906 C 207.898438 189.503906 207.738281 189.503906 207.582031 189.507812 C 207.464844 189.507812 207.351562 189.507812 207.230469 189.507812 C 207.070312 189.507812 206.902344 189.503906 206.734375 189.503906 C 206.613281 189.5 206.492188 189.5 206.367188 189.496094 C 206.183594 189.496094 205.992188 189.488281 205.800781 189.484375 C 205.691406 189.480469 205.582031 189.476562 205.464844 189.472656 C 205.273438 189.46875 205.070312 189.457031 204.871094 189.449219 C 204.753906 189.445312 204.640625 189.441406 204.519531 189.433594 C 204.332031 189.425781 204.136719 189.414062 203.945312 189.402344 C 203.804688 189.394531 203.671875 189.390625 203.527344 189.378906 C 203.324219 189.367188 203.117188 189.351562 202.90625 189.339844 C 202.769531 189.328125 202.632812 189.320312 202.492188 189.308594 C 202.261719 189.292969 202.015625 189.273438 201.777344 189.25 C 201.65625 189.242188 201.535156 189.234375 201.414062 189.222656 C 201.046875 189.191406 200.671875 189.15625 200.289062 189.117188 C 198.222656 188.910156 196.050781 188.628906 193.792969 188.273438 C 192.289062 188.039062 190.746094 187.769531 189.167969 187.472656 C 187.589844 187.171875 185.976562 186.839844 184.335938 186.480469 C 176.949219 184.859375 168.980469 182.632812 160.882812 179.90625 C 150.078125 176.273438 139.992188 172.070312 131.640625 167.757812 C 128.855469 166.320312 126.265625 164.867188 123.90625 163.421875 C 122.921875 162.816406 122.007812 162.230469 121.160156 161.667969 C 113.003906 156.234375 111.222656 152.765625 111.5 151.617188 L 111.519531 151.550781 C 111.804688 150.703125 114.132812 149.253906 121.058594 149.195312 C 122.425781 149.183594 123.523438 148.066406 123.511719 146.699219 C 123.5 145.332031 122.382812 144.234375 121.015625 144.246094 C 112.738281 144.3125 108.097656 146.1875 106.824219 149.972656 C 106.796875 150.058594 106.773438 150.144531 106.75 150.230469 C 106.71875 150.300781 106.691406 150.367188 106.667969 150.441406 C 105.640625 153.496094 102.921875 164.484375 111.054688 177.78125 C 112.976562 180.921875 115.359375 183.914062 118.179688 186.734375 C 126.175781 194.726562 137.667969 201.355469 152.039062 206.191406 C 186.03125 217.625 204.304688 208.972656 212.65625 202.027344 L 257.191406 217.007812 C 258.484375 217.441406 259.890625 216.746094 260.324219 215.449219 Z M 260.324219 215.449219 " fill-opacity="1" fill-rule="nonzero"/></g></g></g><g clip-path="url(#b1abe6fb0a)"><g clip-path="url(#ed5b34991c)"><g clip-path="url(#a15d5fa4cb)"><path fill="#d80b19" d="M 160.78125 146.34375 C 159.464844 143.839844 157.351562 141.371094 154.566406 139.074219 C 154.160156 138.734375 153.789062 138.40625 153.441406 138.078125 C 149.875 136.617188 141.515625 134.863281 133.101562 145.101562 C 133.207031 145.867188 133.355469 146.660156 133.558594 147.476562 C 134.308594 150.464844 135.535156 153.097656 137.078125 155.324219 C 145.691406 145.539062 155.019531 145.21875 160.78125 146.34375 Z M 160.78125 146.34375 " fill-opacity="1" fill-rule="nonzero"/></g></g></g><g clip-path="url(#2844df5d18)"><g clip-path="url(#e52cbc43cc)"><g clip-path="url(#f794aae355)"><path fill="#d80b19" d="M 149.316406 117.015625 C 144.765625 118.066406 146.164062 125.066406 146.164062 125.066406 C 146.164062 125.066406 135.226562 129.007812 133.226562 139.195312 C 139.390625 133.496094 145.46875 132.632812 149.996094 133.191406 C 149.28125 131.214844 149.664062 129.96875 149.664062 129.96875 C 153.515625 134.519531 158.769531 132.769531 158.417969 129.621094 C 158.070312 126.46875 152.117188 125.417969 152.117188 125.417969 C 155.269531 120.867188 153.867188 115.964844 149.316406 117.015625 Z M 149.316406 117.015625 " fill-opacity="1" fill-rule="nonzero"/></g></g></g><g clip-path="url(#0b8b7f2432)"><g clip-path="url(#74a81e1372)"><g clip-path="url(#08ba29f9ea)"><path fill="#d80b19" d="M 158.769531 160.078125 C 161.625 157.226562 162.679688 154.015625 162.238281 150.742188 C 158.027344 149.355469 148.558594 147.941406 139.664062 158.402344 C 145.441406 164.082031 153.550781 165.296875 158.769531 160.078125 Z M 158.769531 160.078125 " fill-opacity="1" fill-rule="nonzero"/></g></g></g><g clip-path="url(#e74fd40ec0)"><g clip-path="url(#119083e968)"><g clip-path="url(#1baea71a46)"><path fill="#87a72a" d="M 164.355469 167.921875 C 164.136719 168.828125 164.675781 169.746094 165.570312 170 C 186.078125 175.792969 192.964844 163.015625 195.199219 155.542969 C 195.445312 154.726562 194.574219 154.023438 193.828125 154.429688 L 188.179688 157.503906 L 173.671875 165.40625 C 173.257812 165.628906 172.71875 165.570312 172.421875 165.199219 C 172.066406 164.753906 172.191406 164.125 172.632812 163.824219 L 186.410156 154.578125 L 191.625 151.078125 C 192.335938 150.601562 192.105469 149.5 191.265625 149.34375 C 171.410156 145.605469 165.667969 162.519531 164.355469 167.921875 Z M 164.355469 167.921875 " fill-opacity="1" fill-rule="nonzero"/></g></g></g><g clip-path="url(#9d58a3b6cd)"><g clip-path="url(#c86ec83d48)"><g clip-path="url(#8db5c4be7e)"><path fill="#87a72a" d="M 155.339844 108.582031 L 159.695312 107.5625 L 170.886719 104.941406 C 171.203125 104.867188 171.558594 105.007812 171.6875 105.308594 C 171.839844 105.675781 171.644531 106.074219 171.289062 106.195312 L 160.339844 109.851562 L 156.195312 111.234375 C 155.632812 111.425781 155.582031 112.203125 156.117188 112.464844 C 168.746094 118.640625 175.722656 108.355469 177.601562 104.972656 C 177.917969 104.40625 177.722656 103.691406 177.171875 103.355469 C 164.484375 95.683594 157.503906 102.980469 154.621094 107.582031 C 154.308594 108.085938 154.761719 108.714844 155.339844 108.582031 Z M 155.339844 108.582031 " fill-opacity="1" fill-rule="nonzero"/></g></g></g><g clip-path="url(#61e6a77637)"><g clip-path="url(#039cc3add7)"><g clip-path="url(#e445fb92c2)"><path fill="#e26a05" d="M 203.96875 157.691406 C 205.675781 163.957031 197.417969 166.519531 200.265625 169.367188 C 203.113281 172.214844 214.21875 166.804688 217.921875 159.113281 C 221.28125 152.136719 219.347656 145.730469 214.789062 141.742188 C 214.789062 141.742188 209.949219 137.472656 205.105469 141.742188 C 200.265625 146.015625 202.257812 151.425781 203.96875 157.691406 Z M 203.96875 157.691406 " fill-opacity="1" fill-rule="nonzero"/></g></g></g><g clip-path="url(#b0c69f961a)"><g clip-path="url(#f2273e7314)"><g clip-path="url(#147362fa47)"><path fill="#e26a05" d="M 171.375 128.773438 L 166.554688 134.796875 C 166.160156 135.289062 166.199219 136 166.648438 136.445312 C 175.082031 144.882812 181.859375 143.496094 182.144531 143.433594 C 182.582031 143.335938 182.933594 143.007812 183.0625 142.578125 L 184.753906 136.933594 C 186.890625 137.65625 189.371094 137.445312 191.203125 136.292969 C 192.90625 135.222656 193.785156 133.515625 193.613281 131.609375 C 193.332031 128.511719 190.636719 127.214844 188.339844 126.792969 C 188.746094 125.714844 189.066406 124.269531 188.710938 122.800781 C 188.328125 121.230469 187.285156 119.976562 185.613281 119.078125 C 184.054688 118.238281 182.546875 118.082031 181.132812 118.613281 C 179.839844 119.097656 178.890625 120.089844 178.25 120.996094 C 177.402344 120.007812 176.144531 118.898438 174.542969 118.503906 C 173.003906 118.128906 171.464844 118.464844 169.96875 119.5 C 168.261719 120.679688 167.898438 122.078125 167.898438 123.042969 C 167.890625 125.421875 170.027344 127.617188 171.375 128.773438 Z M 171.375 128.773438 " fill-opacity="1" fill-rule="nonzero"/></g></g></g><g clip-path="url(#0a72bbe01b)"><g clip-path="url(#48f5d0c8bd)"><g clip-path="url(#49e9f30748)"><path fill="#d80b19" d="M 206.734375 124.019531 C 206.410156 124.34375 206.035156 124.59375 205.609375 124.769531 C 205.1875 124.945312 204.742188 125.03125 204.285156 125.03125 C 203.824219 125.03125 203.382812 124.945312 202.957031 124.769531 C 202.53125 124.59375 202.160156 124.34375 201.832031 124.019531 C 201.507812 123.691406 201.257812 123.316406 201.082031 122.894531 C 200.90625 122.46875 200.816406 122.027344 200.816406 121.566406 C 200.816406 121.105469 200.90625 120.664062 201.082031 120.242188 C 201.257812 119.816406 201.507812 119.441406 201.832031 119.117188 C 202.160156 118.789062 202.53125 118.539062 202.957031 118.363281 C 203.382812 118.1875 203.824219 118.101562 204.285156 118.101562 C 204.742188 118.101562 205.1875 118.1875 205.609375 118.363281 C 206.035156 118.539062 206.410156 118.789062 206.734375 119.117188 C 207.058594 119.441406 207.308594 119.816406 207.484375 120.242188 C 207.664062 120.664062 207.75 121.105469 207.75 121.566406 C 207.75 122.027344 207.664062 122.46875 207.484375 122.894531 C 207.308594 123.316406 207.058594 123.691406 206.734375 124.019531 Z M 206.734375 124.019531 " fill-opacity="1" fill-rule="nonzero"/></g></g></g><g clip-path="url(#9e37cecd84)"><g clip-path="url(#71a13f6a13)"><g clip-path="url(#4a7a46e8c7)"><path fill="#d80b19" d="M 126.207031 138.722656 C 125.976562 138.953125 125.707031 139.132812 125.40625 139.257812 C 125.101562 139.386719 124.785156 139.449219 124.457031 139.449219 C 124.128906 139.449219 123.8125 139.386719 123.511719 139.257812 C 123.207031 139.132812 122.9375 138.953125 122.707031 138.722656 C 122.476562 138.492188 122.296875 138.222656 122.171875 137.917969 C 122.042969 137.617188 121.980469 137.300781 121.980469 136.972656 C 121.980469 136.644531 122.042969 136.328125 122.171875 136.023438 C 122.296875 135.722656 122.476562 135.453125 122.707031 135.222656 C 122.9375 134.988281 123.207031 134.808594 123.511719 134.683594 C 123.8125 134.558594 124.128906 134.496094 124.457031 134.496094 C 124.785156 134.496094 125.101562 134.558594 125.40625 134.683594 C 125.707031 134.808594 125.976562 134.988281 126.207031 135.222656 C 126.441406 135.453125 126.617188 135.722656 126.746094 136.023438 C 126.871094 136.328125 126.933594 136.644531 126.933594 136.972656 C 126.933594 137.300781 126.871094 137.617188 126.746094 137.917969 C 126.617188 138.222656 126.441406 138.492188 126.207031 138.722656 Z M 126.207031 138.722656 " fill-opacity="1" fill-rule="nonzero"/></g></g></g><g clip-path="url(#5dd5c0b1d3)"><g clip-path="url(#b50fa15a80)"><g clip-path="url(#015c3d46ef)"><path fill="#d80b19" d="M 195.882812 181.085938 C 195.648438 181.320312 195.382812 181.496094 195.078125 181.625 C 194.773438 181.75 194.460938 181.8125 194.128906 181.8125 C 193.800781 181.8125 193.488281 181.75 193.183594 181.625 C 192.878906 181.496094 192.613281 181.320312 192.378906 181.085938 C 192.148438 180.855469 191.96875 180.585938 191.84375 180.285156 C 191.71875 179.980469 191.65625 179.664062 191.65625 179.335938 C 191.65625 179.007812 191.71875 178.691406 191.84375 178.390625 C 191.96875 178.085938 192.148438 177.816406 192.378906 177.585938 C 192.613281 177.351562 192.878906 177.175781 193.183594 177.050781 C 193.488281 176.921875 193.800781 176.859375 194.128906 176.859375 C 194.460938 176.859375 194.773438 176.921875 195.078125 177.050781 C 195.382812 177.175781 195.648438 177.351562 195.882812 177.585938 C 196.113281 177.816406 196.292969 178.085938 196.417969 178.390625 C 196.542969 178.691406 196.605469 179.007812 196.605469 179.335938 C 196.605469 179.664062 196.542969 179.980469 196.417969 180.285156 C 196.292969 180.585938 196.113281 180.855469 195.882812 181.085938 Z M 195.882812 181.085938 " fill-opacity="1" fill-rule="nonzero"/></g></g></g><g clip-path="url(#fab9e8c402)"><path fill="#11221a" d="M 145.820312 182.246094 L 163.023438 182.246094 L 163.023438 200.65625 L 145.820312 200.65625 Z M 145.820312 182.246094 " fill-opacity="1" fill-rule="nonzero"/></g></svg>